<!DOCTYPE svg PUBLIC "-//W3C//DTD SVG 1.1//EN" "http://www.w3.org/Graphics/SVG/1.1/DTD/svg11.dtd">
<!-- Uploaded to: SVG Repo, www.svgrepo.com, Transformed by: SVG Repo Mixer Tools -->
<svg fill="#ffffff" height="256px" width="256px" version="1.1" id="Layer_1" xmlns="http://www.w3.org/2000/svg" xmlns:xlink="http://www.w3.org/1999/xlink" viewBox="-112.64 -112.64 737.28 737.28" xml:space="preserve" stroke="#ffffff">
<g id="SVGRepo_bgCarrier" stroke-width="0">
<rect x="-112.64" y="-112.64" width="737.28" height="737.28" rx="368.64" fill="#2d4383" strokewidth="0"/>
</g>
<g id="SVGRepo_tracerCarrier" stroke-linecap="round" stroke-linejoin="round"/>
<g id="SVGRepo_iconCarrier"> <g> <g> <g> <path d="M503.393,31.093l-27.69-27.689c-3.881-3.881-9.947-4.517-14.547-1.528L334.775,83.954 c-0.003,0.002-0.006,0.005-0.01,0.007c-0.352,0.23-0.696,0.48-1.027,0.752c-0.062,0.051-0.116,0.109-0.178,0.16 c-0.229,0.195-0.457,0.392-0.673,0.608l-48.161,48.161l-18.092-18.092c-2.18-2.179-5.135-3.404-8.217-3.404 s-6.038,1.225-8.217,3.404l-34.694,34.695c-4.538,4.538-4.538,11.896,0,16.435l7.251,7.251l-4.003,4.003 C184.372,189.353,80.614,234.19,9.137,374.329c-4.495,8.814-5.16,18.815-1.87,28.163c3.252,9.241,10.24,16.843,19.185,20.864 l0.436,0.195c4.766,2.143,9.759,3.16,14.682,3.16c13.106,0,25.695-7.219,32.057-19.644 c34.887-68.126,78.156-107.804,108.309-129.093c35.244-24.882,63.258-32.572,64.356-32.867 c6.526-1.518,12.294-4.745,17.145-9.596l10.448-10.448l18.26,18.26l-10.447,10.447c-4.839,4.838-8.063,10.588-9.586,17.095 c-0.472,1.748-8.261,29.539-32.879,64.406c-21.29,30.155-60.969,73.425-129.093,108.309 c-17.092,8.752-24.332,29.282-16.486,46.738l0.202,0.451c4.016,8.933,11.62,15.921,20.86,19.172 c3.913,1.377,7.941,2.06,11.949,2.06c5.564,0,11.09-1.32,16.212-3.932c140.138-71.476,184.975-175.236,196.393-209.615 l4.003-4.003l6.673,6.673c2.18,2.179,5.135,3.404,8.217,3.404s6.038-1.225,8.217-3.404l34.694-34.695 c4.538-4.538,4.538-11.896,0-16.435l-27.922-27.922l48.161-48.161c0.221-0.221,0.423-0.454,0.623-0.689 c0.047-0.055,0.099-0.105,0.145-0.16c0.274-0.333,0.525-0.679,0.757-1.033c0.001-0.002,0.003-0.003,0.005-0.006L504.92,45.639 C507.909,41.038,507.272,34.973,503.393,31.093z M247.002,219.075c-1.77,1.77-3.743,2.884-6.029,3.406 c-0.063,0.014-0.124,0.028-0.186,0.044c-0.316,0.077-32.051,8.075-72.257,36.463c-32.286,22.794-78.55,65.15-115.591,137.487 c-3.106,6.066-10.36,8.651-16.536,5.873l-0.436-0.195c-3.204-1.44-5.609-4.058-6.776-7.375c-1.156-3.286-0.926-6.799,0.651-9.888 c69.39-136.046,169.589-176.515,198.646-185.677c1.78-0.561,3.401-1.544,4.722-2.866l5.979-5.98l18.261,18.261L247.002,219.075z M320.86,283.995c-1.322,1.321-2.304,2.94-2.867,4.721c-9.163,29.058-49.632,129.257-185.677,198.646 c-3.09,1.575-6.602,1.809-9.887,0.651c-3.317-1.166-5.935-3.573-7.375-6.774l-0.202-0.45c-2.769-6.16-0.187-13.419,5.879-16.526 c72.334-37.039,114.69-83.304,137.487-115.591c28.387-40.206,36.386-71.94,36.463-72.257c0.016-0.062,0.03-0.123,0.044-0.186 c0.521-2.286,1.634-4.257,3.406-6.028l10.448-10.449l18.261,18.261L320.86,283.995z M376.425,258.211l-18.261,18.261 L240.155,158.464l18.261-18.261L376.425,258.211z M356.718,205.636l-55.558-55.558l39.944-39.944l55.558,55.558L356.718,205.636z M411.168,147.327l-17.631-17.631l13.323-13.322c4.538-4.538,4.538-11.896,0-16.435c-4.538-4.534-11.894-4.537-16.435,0 l-13.323,13.322l-17.632-17.632l106.454-69.137l14.381,14.381L411.168,147.327z"/> <circle cx="348.915" cy="157.881" r="11.621"/> </g> </g> </g> </g>
</svg>