<!DOCTYPE svg PUBLIC "-//W3C//DTD SVG 1.1//EN" "http://www.w3.org/Graphics/SVG/1.1/DTD/svg11.dtd">
<!-- Uploaded to: SVG Repo, www.svgrepo.com, Transformed by: SVG Repo Mixer Tools -->
<svg fill="#ffffff" height="256px" width="256px" version="1.1" xmlns="http://www.w3.org/2000/svg" viewBox="-59.4 -59.4 415.80 415.80" xmlns:xlink="http://www.w3.org/1999/xlink" enable-background="new 0 0 297 297" stroke="#ffffff" transform="matrix(1, 0, 0, 1, 0, 0)rotate(0)">
<g id="SVGRepo_bgCarrier" stroke-width="0">
<rect x="-59.4" y="-59.4" width="415.80" height="415.80" rx="207.9" fill="#2d4383" strokewidth="0"/>
</g>
<g id="SVGRepo_tracerCarrier" stroke-linecap="round" stroke-linejoin="round"/>
<g id="SVGRepo_iconCarrier"> <g> <path d="m294.321,129.815l-140.256-126.37c-3.079-2.774-7.757-2.776-10.838-0.006l-140.543,126.371c-2.494,2.244-3.348,5.792-2.147,8.925 1.202,3.133 4.208,5.2 7.564,5.2h23.944l111.125-98.928c3.098-2.837 7.85-2.839 10.947,0.001l111.117,98.927h23.664c3.354,0 6.36-2.065 7.563-5.196 1.202-3.132 0.352-6.679-2.14-8.924z"/> <path d="m148.669,204.907c-2.701,0-4.898,2.197-4.898,4.899 0,2.7 2.197,4.897 4.898,4.897 2.702,0 4.9-2.197 4.9-4.897-0.001-2.702-2.198-4.899-4.9-4.899z"/> <path d="m168.077,187.095c-2.812-2.405-5.989-4.244-9.446-5.466-3.034-1.073-5.063-3.941-5.063-7.16v-7.041h-9.798v7.041c0,3.219-2.029,6.087-5.063,7.16-3.457,1.222-6.635,3.061-9.446,5.466-2.447,2.094-5.947,2.415-8.734,0.807l-6.107-3.526-4.898,8.484 6.102,3.523c2.785,1.607 4.255,4.795 3.671,7.956-0.337,1.826-0.508,3.666-0.508,5.468 0,1.801 0.171,3.64 0.508,5.466 0.584,3.162-0.886,6.349-3.671,7.957l-6.102,3.523 4.898,8.482 6.106-3.524c2.784-1.61 6.286-1.289 8.735,0.807 2.807,2.403 5.985,4.241 9.447,5.466 3.034,1.073 5.062,3.942 5.062,7.16v7.039h9.798v-7.039c0-3.218 2.027-6.087 5.061-7.16 3.462-1.225 6.642-3.063 9.447-5.466 2.447-2.093 5.95-2.416 8.735-0.807l6.106,3.524 4.899-8.482-6.103-3.523c-2.784-1.608-4.255-4.795-3.671-7.957 0.338-1.826 0.509-3.665 0.509-5.466 0-1.802-0.171-3.642-0.509-5.468-0.584-3.161 0.887-6.349 3.671-7.956l6.103-3.523-4.899-8.484-6.106,3.526c-2.787,1.608-6.288,1.285-8.734-0.807zm-19.408,42.799c-11.076,0-20.088-9.011-20.088-20.087 0-11.076 9.012-20.088 20.088-20.088 11.076,0 20.088,9.012 20.088,20.088 0,11.076-9.012,20.087-20.088,20.087z"/> <path d="m42.077,156.72v130.816c0,4.473 3.627,8.101 8.101,8.101h196.928c4.474,0 8.101-3.628 8.101-8.101v-130.816l-106.563-94.752-106.567,94.752zm145.588,9.945c1.944,0.521 3.604,1.794 4.61,3.539l12.494,21.638c1.006,1.744 1.279,3.817 0.758,5.763-0.521,1.945-1.794,3.604-3.538,4.611l-8.335,4.813c0.059,0.929 0.088,1.855 0.088,2.778 0,0.921-0.029,1.848-0.088,2.776l8.335,4.813c1.744,1.007 3.017,2.666 3.538,4.611 0.521,1.946 0.248,4.019-0.758,5.764l-12.494,21.637c-2.098,3.632-6.74,4.875-10.374,2.779l-8.335-4.812c-1.545,1.027-3.151,1.956-4.81,2.782v9.62c0,4.194-3.399,7.595-7.595,7.595h-24.986c-4.194,0-7.595-3.4-7.595-7.595v-9.62c-1.658-0.826-3.264-1.755-4.81-2.782l-8.335,4.812c-3.631,2.097-8.275,0.854-10.374-2.779l-12.492-21.638c-1.007-1.745-1.28-3.817-0.759-5.764 0.522-1.945 1.794-3.605 3.538-4.611l8.335-4.813c-0.058-0.929-0.088-1.855-0.088-2.776 0-0.922 0.03-1.85 0.088-2.778l-8.335-4.813c-1.744-1.007-3.017-2.666-3.538-4.611-0.521-1.945-0.248-4.019 0.759-5.763l12.493-21.638c1.007-1.745 2.666-3.018 4.611-3.539 1.944-0.522 4.019-0.248 5.763,0.759l8.336,4.813c1.547-1.027 3.15-1.956 4.809-2.782v-9.621c0-4.194 3.4-7.594 7.595-7.594h24.986c4.195,0 7.595,3.399 7.595,7.594v9.621c1.658,0.826 3.263,1.755 4.809,2.782l8.336-4.813c1.746-1.007 3.818-1.279 5.763-0.758zm-56.418-37.518c9.606-9.607 25.238-9.607 34.844,0 2.967,2.967 2.967,7.774 0.001,10.74-1.483,1.483-3.428,2.226-5.37,2.226-1.943,0-3.887-0.742-5.37-2.226-3.685-3.684-9.681-3.684-13.365,0-2.966,2.967-7.774,2.965-10.74,0-2.966-2.965-2.966-7.773 2.84217e-14-10.74zm48.104-16.852c2.966,2.965 2.966,7.774-0.001,10.739-1.482,1.483-3.427,2.225-5.37,2.225-1.943,0-3.887-0.741-5.37-2.225-5.326-5.328-12.408-8.262-19.941-8.262s-14.615,2.934-19.941,8.262c-2.967,2.967-7.773,2.965-10.74,0-2.966-2.965-2.966-7.774-0.001-10.739 8.195-8.197 19.093-12.711 30.683-12.711 11.59,0 22.486,4.514 30.681,12.711z"/> </g> </g>
</svg>