<!DOCTYPE svg PUBLIC "-//W3C//DTD SVG 1.1//EN" "http://www.w3.org/Graphics/SVG/1.1/DTD/svg11.dtd">
<!-- Uploaded to: SVG Repo, www.svgrepo.com, Transformed by: SVG Repo Mixer Tools -->
<svg version="1.1" id="Uploaded to svgrepo.com" xmlns="http://www.w3.org/2000/svg" xmlns:xlink="http://www.w3.org/1999/xlink" width="256px" height="256px" viewBox="-6.08 -6.08 44.16 44.16" xml:space="preserve" fill="#000000" stroke="#000000" stroke-width="0.00032">
<g id="SVGRepo_bgCarrier" stroke-width="0" transform="translate(0,0), scale(1)">
<rect x="-6.08" y="-6.08" width="44.16" height="44.16" rx="22.08" fill="#ffff00" strokewidth="0"/>
</g>
<g id="SVGRepo_tracerCarrier" stroke-linecap="round" stroke-linejoin="round" stroke="#CCCCCC" stroke-width="0.064"/>
<g id="SVGRepo_iconCarrier"> <style type="text/css"> .stone_een{fill:#fa0000;} </style> <path class="stone_een" d="M9.421,13.339C9.753,10.855,11.872,9,14.378,9h3.245c2.506,0,4.625,1.855,4.956,4.339L23.733,22H16V11 h-1.587c-1.498,0-2.766,1.105-2.972,2.589L10.277,22h-2.01L9.421,13.339z M13.187,7.436c0.061,0.224,0.263,0.371,0.483,0.371 c0.043,0,0.086-0.005,0.129-0.017c0.268-0.071,0.426-0.346,0.354-0.612l-1.035-3.864c-0.072-0.268-0.348-0.424-0.612-0.354 c-0.268,0.071-0.426,0.346-0.354,0.612L13.187,7.436z M22.364,10.136c0.128,0,0.256-0.049,0.354-0.146l2.828-2.829 c0.195-0.195,0.195-0.512,0-0.707s-0.512-0.195-0.707,0l-2.828,2.829c-0.195,0.195-0.195,0.512,0,0.707 C22.108,10.087,22.236,10.136,22.364,10.136z M18.2,7.79c0.043,0.012,0.086,0.017,0.129,0.017c0.221,0,0.423-0.147,0.483-0.371 l1.035-3.864c0.071-0.267-0.087-0.541-0.354-0.612c-0.261-0.069-0.54,0.087-0.612,0.354l-1.035,3.864 C17.774,7.444,17.933,7.718,18.2,7.79z M8,23c-0.552,0-1,0.448-1,1h18c0-0.552-0.448-1-1-1H8z M9.282,9.99 c0.098,0.098,0.226,0.146,0.354,0.146s0.256-0.049,0.354-0.146c0.195-0.195,0.195-0.512,0-0.707L7.161,6.454 c-0.195-0.195-0.512-0.195-0.707,0s-0.195,0.512,0,0.707L9.282,9.99z M29.04,12.506c-0.072-0.268-0.343-0.424-0.613-0.354 l-3.863,1.035c-0.267,0.071-0.425,0.346-0.354,0.612c0.061,0.224,0.263,0.371,0.483,0.371c0.043,0,0.086-0.005,0.13-0.017 l3.863-1.035C28.953,13.047,29.111,12.772,29.04,12.506z M25,25H7c-1.163,0-2.164,0.821-2.392,1.961l-0.369,1.843 C4.115,29.423,4.589,30,5.22,30h21.56c0.631,0,1.104-0.577,0.981-1.196l-0.369-1.843C27.164,25.821,26.163,25,25,25z M12.432,13.726 L11.286,22H15V12h-0.587C13.42,12,12.568,12.742,12.432,13.726z M7.307,14.17c0.221,0,0.423-0.147,0.483-0.371 c0.071-0.267-0.087-0.541-0.354-0.612l-3.863-1.035c-0.27-0.069-0.541,0.087-0.613,0.354c-0.071,0.267,0.087,0.541,0.354,0.612 l3.863,1.035C7.221,14.165,7.264,14.17,7.307,14.17z"/> </g>
</svg>