<!DOCTYPE svg PUBLIC "-//W3C//DTD SVG 1.1//EN" "http://www.w3.org/Graphics/SVG/1.1/DTD/svg11.dtd">
<!-- Uploaded to: SVG Repo, www.svgrepo.com, Transformed by: SVG Repo Mixer Tools -->
<svg fill="#ffffff" height="256px" width="256px" version="1.1" id="Layer_1" xmlns="http://www.w3.org/2000/svg" xmlns:xlink="http://www.w3.org/1999/xlink" viewBox="-122.88 -122.88 757.76 757.76" xml:space="preserve" stroke="#ffffff">
<g id="SVGRepo_bgCarrier" stroke-width="0" transform="translate(0,0), scale(1)">
<rect x="-122.88" y="-122.88" width="757.76" height="757.76" rx="378.88" fill="#2d4383" strokewidth="0"/>
</g>
<g id="SVGRepo_tracerCarrier" stroke-linecap="round" stroke-linejoin="round" stroke="#CCCCCC" stroke-width="8.192"/>
<g id="SVGRepo_iconCarrier"> <g> <g> <path d="M444.125,0H67.875C54.024,0,42.756,11.268,42.756,25.119v316.392c0,4.428,3.588,8.017,8.017,8.017 c4.428,0,8.017-3.588,8.017-8.017V25.119c0-5.01,4.076-9.086,9.086-9.086h376.25c5.01,0,9.086,4.076,9.086,9.086v461.762 c0,5.01-4.076,9.086-9.086,9.086H67.875c-5.01,0-9.086-4.076-9.086-9.086V375.716c0-4.428-3.588-8.017-8.017-8.017 c-4.428,0-8.017,3.588-8.017,8.017v111.165c0,13.851,11.268,25.119,25.119,25.119h376.25c13.851,0,25.119-11.268,25.119-25.119 V25.119C469.244,11.268,457.976,0,444.125,0z"/> </g> </g> <g> <g> <path d="M341.511,230.882c-4.428,0-8.017,3.588-8.017,8.017v137.352H289.67v-42.302l25.414-101.657 c0.01-0.039,0.013-0.078,0.021-0.117c0.051-0.221,0.092-0.446,0.125-0.673c0.012-0.079,0.027-0.158,0.036-0.238 c0.034-0.301,0.056-0.606,0.056-0.917v-94.597h18.171v68.944c0,4.428,3.588,8.017,8.017,8.017c4.428,0,8.017-3.588,8.017-8.017 v-76.96c0-4.428-3.588-8.017-8.017-8.017H170.487c-4.427,0-8.016,3.588-8.016,8.017V229.36l-25.414,101.656 c-0.011,0.042-0.014,0.083-0.023,0.124c-0.045,0.19-0.079,0.383-0.11,0.577c-0.015,0.099-0.033,0.198-0.045,0.297 c-0.021,0.186-0.032,0.374-0.042,0.564c-0.005,0.105-0.015,0.208-0.016,0.313c0,0.023-0.003,0.046-0.003,0.069v51.307 c0,4.428,3.588,8.017,8.017,8.017h196.676c4.428,0,8.017-3.588,8.017-8.017v-145.37 C349.528,234.47,345.94,230.882,341.511,230.882z M178.505,135.749H299.29v86.58H178.505V135.749z M273.637,376.251H152.852 v-35.273h120.785V376.251z M155.102,324.944l21.646-86.58h120.291l-21.645,86.58H155.102z"/> </g> </g> <g> <g> <path d="M238.898,42.756h-34.205c-4.428,0-8.017,3.588-8.017,8.017v51.307c0,4.428,3.588,8.017,8.017,8.017h34.205 c4.428,0,8.017-3.588,8.017-8.017V50.772C246.914,46.344,243.326,42.756,238.898,42.756z M230.881,94.063H212.71V58.789h18.171 V94.063z"/> </g> </g> <g> <g> <path d="M307.307,42.756c-4.428,0-8.017,3.588-8.017,8.017v29.164L270.71,45.64c-4.701-5.638-14.176-2.191-14.176,5.133v51.307 c0,4.428,3.588,8.017,8.017,8.017c4.428,0,8.017-3.588,8.017-8.017V72.916l28.58,34.297c2.316,2.778,6.318,3.659,9.589,2.111 c2.775-1.312,4.587-4.175,4.587-7.244V50.772C315.324,46.344,311.735,42.756,307.307,42.756z"/> </g> </g> <g> <g> <path d="M213.244,410.455H179.04c-4.428,0-8.017,3.588-8.017,8.017v51.307c0,4.428,3.588,8.017,8.017,8.017h34.205 c4.428,0,8.017-3.588,8.017-8.017v-51.307C221.261,414.043,217.673,410.455,213.244,410.455z M205.228,461.762h-18.171v-35.273 h18.171V461.762z"/> </g> </g> <g> <g> <path d="M273.102,410.455h-34.205c-4.428,0-8.017,3.588-8.017,8.017v51.307c0,4.428,3.588,8.017,8.017,8.017 s8.017-3.588,8.017-8.017v-17.637h17.637c4.428,0,8.017-3.588,8.017-8.017c0-4.428-3.588-8.017-8.017-8.017h-17.637v-9.62h26.188 c4.428,0,8.017-3.588,8.017-8.017C281.119,414.043,277.531,410.455,273.102,410.455z"/> </g> </g> <g> <g> <path d="M332.96,410.455h-34.205c-4.428,0-8.017,3.588-8.017,8.017v51.307c0,4.428,3.588,8.017,8.017,8.017 c4.428,0,8.017-3.588,8.017-8.017v-17.637h17.637c4.428,0,8.017-3.588,8.017-8.017c0-4.428-3.588-8.017-8.017-8.017h-17.637v-9.62 h26.188c4.428,0,8.017-3.588,8.017-8.017C340.977,414.043,337.389,410.455,332.96,410.455z"/> </g> </g> <g> <g> <path d="M401.37,42.756c-18.566,0-33.67,15.105-33.67,33.67s15.105,33.67,33.67,33.67c18.566,0,33.67-15.104,33.67-33.67 S419.935,42.756,401.37,42.756z M383.733,76.426c0-9.725,7.912-17.637,17.637-17.637c1.896,0,3.72,0.309,5.433,0.866 l-22.204,22.204C384.042,80.146,383.733,78.322,383.733,76.426z M401.37,94.063c-1.896,0-3.72-0.309-5.433-0.866l22.204-22.204 c0.557,1.713,0.866,3.537,0.866,5.433C419.006,86.151,411.094,94.063,401.37,94.063z"/> </g> </g> <g> <g> <path d="M110.63,42.756c-18.566,0-33.67,15.105-33.67,33.67s15.105,33.67,33.67,33.67s33.67-15.104,33.67-33.67 S129.196,42.756,110.63,42.756z M92.994,76.426c0-9.725,7.912-17.637,17.637-17.637c1.896,0,3.72,0.309,5.433,0.866L93.86,81.859 C93.303,80.146,92.994,78.322,92.994,76.426z M110.63,94.063c-1.896,0-3.72-0.309-5.433-0.866l22.204-22.204 c0.557,1.713,0.866,3.537,0.866,5.433C128.267,86.151,120.355,94.063,110.63,94.063z"/> </g> </g> <g> <g> <path d="M401.37,410.455c-18.566,0-33.67,15.105-33.67,33.67c0,18.566,15.105,33.67,33.67,33.67 c18.566,0,33.67-15.105,33.67-33.67C435.04,425.56,419.935,410.455,401.37,410.455z M383.733,444.125 c0-9.725,7.912-17.637,17.637-17.637c1.896,0,3.72,0.309,5.433,0.866l-22.204,22.204 C384.042,447.845,383.733,446.021,383.733,444.125z M401.37,461.762c-1.896,0-3.72-0.309-5.433-0.866l22.204-22.204 c0.557,1.713,0.866,3.537,0.866,5.433C419.006,453.85,411.094,461.762,401.37,461.762z"/> </g> </g> <g> <g> <path d="M110.63,410.455c-18.566,0-33.67,15.105-33.67,33.67c0,18.566,15.105,33.67,33.67,33.67s33.67-15.105,33.67-33.67 C144.301,425.56,129.196,410.455,110.63,410.455z M92.994,444.125c0-9.725,7.912-17.637,17.637-17.637 c1.896,0,3.72,0.309,5.433,0.866L93.86,449.558C93.303,447.845,92.994,446.021,92.994,444.125z M110.63,461.762 c-1.896,0-3.72-0.309-5.433-0.866l22.204-22.204c0.557,1.713,0.866,3.537,0.866,5.433 C128.267,453.85,120.355,461.762,110.63,461.762z"/> </g> </g> </g>
</svg>